<svg width="152" height="51" viewBox="0 0 152 51" fill="none" xmlns="http://www.w3.org/2000/svg">
<path d="M65.1165 21.8203C65.3295 16.7812 61.9311 13.8835 56.7322 13.8835C51.1072 13.8835 46.1854 17.7933 45.0135 24.8139C43.831 32.0582 47.5703 36.2983 53.5256 36.2983C59.0014 36.2983 62.8473 32.5589 64.0192 28.5426H59.3849C58.5646 30.8544 56.3913 32.218 53.7706 32.218C50.5959 32.218 48.8594 29.8956 49.6051 25.3679C50.3828 20.6804 53.1634 17.9638 56.6577 17.9638C59.076 17.9638 60.5675 19.402 60.5142 21.8203H65.1165ZM73.7208 36.3196C78.664 36.3196 82.2755 32.9531 83.0958 27.946C83.9268 22.8537 81.3913 19.4233 76.4055 19.4233C71.4516 19.4233 67.8401 22.7791 67.0305 27.8075C66.1888 32.8892 68.7244 36.3196 73.7208 36.3196ZM74.1789 32.804C71.9417 32.804 71.1427 30.7372 71.6008 27.9247C72.0695 25.0376 73.6462 22.8857 75.9474 22.8857C78.1846 22.8857 78.9729 24.9631 78.5255 27.7862C78.0461 30.6733 76.4694 32.804 74.1789 32.804ZM91.0236 36.2663C93.655 36.2663 95.2744 34.7429 96.1373 33.3793H96.329L95.8923 36H100.367L103.989 14.1818H99.4505L98.0869 22.3849H97.9484C97.5755 21.0533 96.5315 19.4233 93.7935 19.4233C90.1927 19.4233 86.6984 22.2145 85.7715 27.8395C84.866 33.3153 87.2736 36.2663 91.0236 36.2663ZM93.0158 32.6548C90.7786 32.6548 89.937 30.6733 90.4164 27.8182C90.8745 24.9844 92.3553 23.0348 94.6032 23.0348C96.8085 23.0348 97.7673 24.8991 97.2879 27.8182C96.8085 30.7372 95.1998 32.6548 93.0158 32.6548ZM111.792 36.3196C115.861 36.3196 118.876 34.3487 120.037 31.3125L115.893 31.0355C115.222 32.282 113.944 32.9318 112.431 32.9318C110.108 32.9318 108.947 31.6747 109.363 29.0966L109.384 28.9794H120.527L120.73 27.733C121.657 22.1719 118.759 19.4233 114.423 19.4233C109.608 19.4233 105.921 22.843 105.08 27.8928C104.206 33.081 106.752 36.3196 111.792 36.3196ZM109.895 26.1669C110.279 24.3665 112.015 22.8111 113.965 22.8111C115.925 22.8111 117.022 24.2173 116.703 26.1669H109.895ZM128.892 19.6364H124.204L127.528 27.8182L121.307 36H125.994L130.106 30.343L132.397 36H137.031L133.526 27.8182L139.631 19.6364H134.975L130.937 25.3572L128.892 19.6364ZM151.33 19.6364H148.24L148.89 15.7159H144.352L143.702 19.6364H141.475L140.9 23.0455H143.137L141.731 31.5682C141.156 34.7642 143.073 36.3516 146.408 36.2237C147.58 36.1918 148.443 35.9574 148.954 35.7976L148.784 32.4205C148.549 32.4631 148.059 32.5696 147.633 32.5696C146.727 32.5696 146.142 32.2287 146.355 30.9716L147.676 23.0455H150.765L151.33 19.6364Z" fill="#42B4EE"/>
<path d="M44.8275 8.03191L21.8275 21.5319C11.8271 18.0317 2.82799 13.5317 7.82752 7.03169C12.8273 2.03203 22.8275 9.53214 23.8275 8.53214C23.8275 8.53214 25.328 5.53201 29.3275 0.0319087C36.328 -0.468217 41.9942 5.03191 44.8275 8.03191Z" fill="#42B4EE"/>
<path d="M0.402995 20.5C7.903 22.8333 22.103 29.3 18.903 36.5C11.9033 44 -2.59653 37.5 0.402995 20.5Z" fill="#42B4EE"/>
<path d="M29.4033 35C27.0033 42.6 16.07 45.5 10.9033 46C23.7033 56.0001 37.9033 48.1667 43.4033 43C39.7367 37.1667 37.4033 40 29.4033 35Z" fill="#42B4EE"/>
</svg>
